<?xml version="1.0" encoding="utf-8"?>
<!-- Generator: Adobe Illustrator 24.0.0, SVG Export Plug-In . SVG Version: 6.00 Build 0)  -->
<svg version="1.1" xmlns="http://www.w3.org/2000/svg" xmlns:xlink="http://www.w3.org/1999/xlink" x="0px" y="0px"
	 viewBox="0 0 554.3 582.5" style="enable-background:new 0 0 554.3 582.5;" xml:space="preserve">
<g id="Background">
</g>
<g id="Objects">
	<g>
		<path d="M539.82,82.42c-17.94-28-60.35-45.09-105.13-24.17c-52.94,24.72-51.23,91.7-37.59,140.05
			c13.64,48.35,70.27,119.21,79.67,166.51c6.49,32.63-14.36,81.81-52.55,114.8c0.11-17.4,3.19-55.06-9.09-121.76
			c-15.78-85.67-47.91-124.28-85.67-147.1c-37.76-22.83-73.67-15.59-100.2-22.34c-26.53-6.74-25.77-54.22-41.34-89.66
			c-14.93-33.97-32.75-45.63-46.92-56.32c-14.17-10.68-19.44-15.43-26-20.71c-6.55-5.28-22.83-16.91-25.57-16.7
			c-2.75,0.21-2.75,5.71-4.23,6.55c-1.48,0.85-6.55-5.92-9.09-8.03c-2.54-2.11-7.19-5.5-8.67-2.11
			c-1.48,3.38,10.15,29.59,8.45,32.76c-1.69,3.17-3.8,3.17-15.64,6.55c-11.84,3.38-29.17,22.4-33.82,28.53
			c-4.65,6.13-8.88,25.79-11.41,30.01c-2.54,4.23-8.24,10.36-10.57,12.68c-2.33,2.32-4.23,6.55-4.44,10.99
			c-0.21,4.44,2.11,7.61,4.02,9.09c1.9,1.48,0.21,5.28,2.11,8.67c1.9,3.38,4.65,5.28,6.34,6.55c1.69,1.27-1.06,4.23,4.86,10.99
			c5.92,6.76,32.27,7.96,39.31,15.29c7.05,7.33,5.64,25.36,5.35,35.23c-0.28,9.86-12.68,31.56-13.81,50.16
			c-1.13,18.6,22.55,70.45,35.51,84.26c12.96,13.81,32.41,56.92,32.13,66.51c-0.28,9.58-5.35,30.72-8.17,41.99
			c-2.82,11.27-5.07,41.71-7.61,44.25c-2.54,2.54-18.04,5.07-23.11,9.3c-5.07,4.23-5.92,12.68-0.56,21.98
			c5.35,9.3,15.78,7.89,15.78,7.89s-5.07,3.8-7.61,9.3c-2.54,5.5-1.27,15.22,4.65,18.18c5.92,2.96,34.66,5.07,43.54,4.23
			c8.88-0.85,13.1-3.38,19.87-10.57c6.76-7.19,8.03-24.1,9.72-25.79c1.69-1.69,12.68,3.38,22.4,3.81
			c9.72,0.42,34.66,1.69,34.66,1.69l5.07,4.23c0,0-12.26,7.61-14.8,18.6c-2.54,10.99,2.54,18.32,13.25,22.26
			c10.71,3.94,32.13-1.13,38.89-3.94c6.76-2.82,13.53,1.69,29.87,1.69c16.34,0,53.54-6.77,77.78-7.89
			c24.24-1.13,16.91-3.95,21.98-8.46s9.02-2.82,23.67-15.22c3.69-3.13,6.42-7.79,8.37-13.16c4.57-2.03,9.14-4.24,13.68-6.65
			c61.2-32.49,137.49-131.62,25.2-286.59c-31.14-42.98-40.42-99.39-27.71-126.09c12.7-26.7,48.01-33.91,72.34-13.71
			s15.32,45.78,7.25,52.92c-8.07,7.14-44.71,11.21-30.96,38.17c7.01,13.74,40.14,5.13,58.32-20.66
			C559.79,145.66,557.75,110.43,539.82,82.42z"/>
	</g>
</g>
</svg>
